<svg xmlns="http://www.w3.org/2000/svg" viewBox="0 0 64 64">
  <defs>
    <linearGradient id="nutri-gradient" x1="10" y1="8" x2="54" y2="58" gradientUnits="userSpaceOnUse">
      <stop stop-color="#35c995"/>
      <stop offset="1" stop-color="#159b82"/>
    </linearGradient>
  </defs>
  <rect width="64" height="64" rx="16" fill="url(#nutri-gradient)"/>
  <path d="M17 27h30v3c0 10.49-6.72 18-15 18s-15-7.51-15-18v-3Z" fill="#fff"/>
  <path d="M22 28c1.2 4.9 4.6 8 10 8s8.8-3.1 10-8" fill="none" stroke="#159b82" stroke-linecap="round" stroke-width="3"/>
  <path d="M32 16v10M32 20c-4.7 0-7.5-2.4-8.5-5.5 4.7 0 7.5 2.4 8.5 5.5ZM32 20c4.7 0 7.5-2.4 8.5-5.5-4.7 0-7.5 2.4-8.5 5.5Z" fill="none" stroke="#fff" stroke-linecap="round" stroke-linejoin="round" stroke-width="3"/>
</svg>
